<?xml version="1.0" encoding="UTF-8"?>
<svg width="256px" height="256px" viewBox="0 0 256 256" xmlns="http://www.w3.org/2000/svg" xmlns:xlink="http://www.w3.org/1999/xlink" version="1.1">
 <!-- Generated by Pixelmator Pro 1.5 -->
 <defs>
  <path id="Abgerundetes-Rechteck" d="M43 3 C20.909 3 3 20.909 3 43 L3 213 C3 235.091 20.909 253 43 253 L213 253 C235.091 253 253 235.091 253 213 L253 43 C253 20.909 235.091 3 213 3 Z"/>
 </defs>
 <defs>
  <linearGradient id="linear-gradient" gradientUnits="userSpaceOnUse" x1="7.923" y1="5.373" x2="252.276" y2="249.726">
   <stop offset="0" stop-color="#7ac5fd" stop-opacity="1"/>
   <stop offset="1" stop-color="#d499ec" stop-opacity="1"/>
  </linearGradient>
 </defs>
 <use id="Abgerundetes-Rechteck-1" xlink:href="#Abgerundetes-Rechteck" fill="url(#linear-gradient)" fill-opacity="1" stroke="none"/>
 <defs>
  <linearGradient id="linear-gradient-1" gradientUnits="userSpaceOnUse" x1="4.885" y1="1.919" x2="253.137" y2="250.171">
   <stop offset="0" stop-color="#7ac5fd" stop-opacity="1"/>
   <stop offset="1" stop-color="#d499ec" stop-opacity="1"/>
  </linearGradient>
 </defs>
 <defs>
  <path id="stroke-path" d="M215.813 250.391 L223.391 249.047 226.719 247.922 231.625 245.563 237.563 241.328 241.328 237.563 243.547 234.734 246.422 230.016 248.5 225.094 249.906 219.625 250.484 213.953 250.5 43.156 250.188 38.234 249.078 32.781 246.375 25.922 242.484 19.844 237.531 14.656 231.625 10.453 226.813 8.141 219.578 6.078 212.953 5.5 43.047 5.5 36.406 6.078 29.219 8.125 22.828 11.406 17.125 15.875 12.438 21.297 8.813 27.578 6.453 34.578 5.797 38.219 5.5 43.156 5.5 213 6.078 219.625 7.453 225 10.469 231.672 13.516 236.172 18.453 241.359 24.359 245.563 29.172 247.875 36.406 249.938 43.031 250.5 Z"/>
 </defs>
 <use id="Abgerundetes-Rechteck-2" stroke="url(#linear-gradient-1)" stroke-opacity="1" stroke-linecap="round" fill="none" stroke-width="5" xlink:href="#stroke-path"/>
 <g id="New-Group">
  <path id="Pfad" d="M217.328 61.161 C215.884 59.987 213.965 59.578 212.169 60.06 L156.466 77.449 100.648 49.105 C99.103 48.39 97.323 48.39 95.779 49.105 L37.816 72.812 C35.631 73.709 34.21 75.842 34.221 78.202 L34.222 196.911 C34.231 198.839 35.198 200.636 36.802 201.705 38.406 202.774 40.437 202.977 42.22 202.244 L97.982 179.348 153.568 207.867 C154.393 208.289 155.307 208.508 156.234 208.504 156.811 208.591 157.397 208.591 157.973 208.504 L215.937 190.42 C218.448 189.633 220.114 187.252 219.994 184.623 L219.994 65.857 C219.933 63.948 218.935 62.191 217.328 61.161 Z M208.112 180.334 L159.886 195.404 159.886 182.13 150.612 182.13 150.612 193.723 101.923 168.741 101.923 158.945 92.649 158.945 92.649 168.915 45.815 188.217 45.815 82.028 92.649 62.726 92.649 76.348 101.923 76.348 101.923 62.784 150.612 87.708 150.612 99.881 159.886 99.881 159.886 89.042 208.112 73.739 Z" fill="#ffffff" fill-opacity="1" stroke="none"/>
  <path id="Pfad-1" d="M150.612 112.575 L159.886 112.575 159.886 134.659 150.612 134.659 Z" fill="#ffffff" fill-opacity="1" stroke="none"/>
  <path id="Pfad-2" d="M150.612 147.353 L159.886 147.353 159.886 169.437 150.612 169.437 Z" fill="#ffffff" fill-opacity="1" stroke="none"/>
  <path id="Pfad-3" d="M92.649 89.389 L101.923 89.389 101.923 111.474 92.649 111.474 Z" fill="#ffffff" fill-opacity="1" stroke="none"/>
  <path id="Pfad-4" d="M92.649 124.573 L101.923 124.573 101.923 146.309 92.649 146.309 Z" fill="#ffffff" fill-opacity="1" stroke="none"/>
 </g>
</svg>
