<?xml version="1.0" encoding="UTF-8"?>
<svg width="44px" height="44px" viewBox="0 0 44 44" xmlns="http://www.w3.org/2000/svg" xmlns:xlink="http://www.w3.org/1999/xlink" version="1.1">
  <path d="M31.5 18 L28.5 18 28.5 19.5 31.5 19.5 31.5 21 33 21 33 19.5 C33 19.102 32.842 18.721 32.561 18.439 32.279 18.158 31.898 18 31.5 18 Z" fill="#000000" fill-opacity="1" stroke="none"/>
  <path d="M31.5 22.5 L33 22.5 33 27 31.5 27 Z" fill="#000000" fill-opacity="1" stroke="none"/>
  <path d="M31.5 31.5 L30 31.5 30 33 31.5 33 C31.898 33 32.279 32.842 32.561 32.561 32.842 32.279 33 31.898 33 31.5 L33 28.5 31.5 28.5 Z" fill="#000000" fill-opacity="1" stroke="none"/>
  <path d="M27 25.5 L27 13.5 C27 13.102 26.842 12.721 26.561 12.439 26.279 12.158 25.898 12 25.5 12 L13.5 12 C13.102 12 12.721 12.158 12.439 12.439 12.158 12.721 12 13.102 12 13.5 L12 25.5 C12 25.898 12.158 26.279 12.439 26.561 12.721 26.842 13.102 27 13.5 27 L25.5 27 C25.898 27 26.279 26.842 26.561 26.561 26.842 26.279 27 25.898 27 25.5 Z M13.5 13.5 L25.5 13.5 25.5 25.5 13.5 25.5 Z" fill="#000000" fill-opacity="1" stroke="none"/>
  <path d="M24 31.5 L28.5 31.5 28.5 33 24 33 Z" fill="#000000" fill-opacity="1" stroke="none"/>
  <path d="M19.5 28.5 L18 28.5 18 31.5 C18 31.898 18.158 32.279 18.439 32.561 18.721 32.842 19.102 33 19.5 33 L22.5 33 22.5 31.5 19.5 31.5 Z" fill="#000000" fill-opacity="1" stroke="none"/>
</svg>
