<?xml version="1.0" encoding="UTF-8"?>
<svg width="44px" height="44px" viewBox="0 0 44 44" xmlns="http://www.w3.org/2000/svg" xmlns:xlink="http://www.w3.org/1999/xlink" version="1.1">
  <path d="M26.906 24.081 C27.093 23.583 27.187 23.056 27.185 22.524 27.185 21.343 26.716 20.211 25.881 19.376 25.047 18.541 23.914 18.072 22.734 18.072 22.208 18.073 21.688 18.167 21.196 18.351 L22.24 19.428 C22.399 19.403 22.56 19.39 22.721 19.39 24.458 19.386 25.873 20.786 25.887 22.524 25.887 22.685 25.874 22.845 25.849 23.004 Z" fill="#000000" fill-opacity="1" stroke="none"/>
  <path d="M32.812 22.219 C30.625 18.176 26.789 15.729 22.545 15.729 21.39 15.732 20.242 15.918 19.145 16.281 L20.19 17.332 C20.959 17.133 21.75 17.031 22.545 17.027 26.199 17.027 29.522 19.065 31.501 22.498 30.775 23.772 29.812 24.895 28.665 25.808 L29.586 26.729 C30.914 25.658 32.017 24.335 32.831 22.835 L33 22.524 Z" fill="#000000" fill-opacity="1" stroke="none"/>
  <path d="M13.72 14.594 L16.614 17.488 C14.785 18.666 13.289 20.295 12.272 22.219 L12.104 22.524 12.272 22.835 C14.459 26.878 18.295 29.325 22.539 29.325 24.195 29.325 25.83 28.95 27.322 28.228 L30.566 31.473 31.702 30.5 14.829 13.627 Z M20.047 20.921 L24.362 25.237 C23.875 25.538 23.313 25.7 22.74 25.704 21.898 25.704 21.092 25.368 20.498 24.771 19.905 24.174 19.574 23.365 19.58 22.524 19.587 21.957 19.749 21.403 20.047 20.921 Z M19.106 19.98 C17.852 21.748 18.056 24.162 19.589 25.695 21.121 27.227 23.536 27.431 25.303 26.177 L26.342 27.216 C25.14 27.73 23.846 27.995 22.539 27.995 18.885 27.995 15.563 25.957 13.583 22.524 14.533 20.842 15.901 19.434 17.555 18.436 Z" fill="#000000" fill-opacity="1" stroke="none"/>
</svg>
