<?xml version="1.0" encoding="UTF-8"?>
<svg width="44px" height="44px" viewBox="0 0 44 44" xmlns="http://www.w3.org/2000/svg" xmlns:xlink="http://www.w3.org/1999/xlink" version="1.1">
  <path d="M32.701 22.219 C30.514 18.176 26.679 15.729 22.435 15.729 18.191 15.729 14.349 18.176 12.182 22.219 L12 22.524 12.169 22.835 C14.356 26.878 18.191 29.325 22.435 29.325 26.679 29.325 30.521 26.911 32.701 22.835 L32.87 22.524 Z M22.435 27.995 C18.781 27.995 15.426 25.957 13.48 22.524 15.426 19.091 18.781 17.053 22.435 17.053 26.089 17.053 29.405 19.098 31.384 22.524 29.405 25.957 26.082 27.995 22.435 27.995 Z" fill="#000000" fill-opacity="1" stroke="none"/>
  <path d="M22.623 18.092 C20.166 18.109 18.188 20.115 18.204 22.571 18.219 25.028 20.223 27.008 22.679 26.995 25.136 26.982 27.118 24.981 27.108 22.524 27.102 21.341 26.627 20.209 25.785 19.377 24.944 18.546 23.806 18.083 22.623 18.092 Z M22.623 25.697 C20.888 25.679 19.494 24.264 19.502 22.528 19.51 20.793 20.918 19.391 22.653 19.39 24.389 19.388 25.799 20.789 25.81 22.524 25.813 23.369 25.478 24.18 24.879 24.776 24.281 25.373 23.468 25.704 22.623 25.697 Z" fill="#000000" fill-opacity="1" stroke="none"/>
</svg>
