<?xml version="1.0" encoding="UTF-8"?>
<svg width="44px" height="44px" viewBox="0 0 44 44" xmlns="http://www.w3.org/2000/svg" xmlns:xlink="http://www.w3.org/1999/xlink" version="1.1">
  <path d="M22.503 24.066 C22.406 24.065 22.309 24.043 22.221 24 L12.388 19.352 C12.158 19.244 12.011 19.013 12.011 18.759 12.011 18.505 12.158 18.274 12.388 18.166 L22.221 13.518 C22.398 13.435 22.602 13.435 22.779 13.518 L32.612 18.166 C32.842 18.274 32.989 18.505 32.989 18.759 32.989 19.013 32.842 19.244 32.612 19.352 L22.779 24 C22.693 24.042 22.599 24.064 22.503 24.066 Z M14.204 18.762 L22.503 22.696 30.802 18.762 22.503 14.842 Z" fill="#000000" fill-opacity="1" stroke="none"/>
  <path d="M22.503 27.94 C22.406 27.94 22.309 27.917 22.221 27.875 L12.388 23.246 C12.172 23.15 12.024 22.943 12.003 22.707 11.981 22.471 12.089 22.242 12.284 22.108 12.48 21.973 12.733 21.955 12.945 22.06 L22.503 26.563 32.055 22.047 C32.386 21.891 32.781 22.033 32.936 22.365 33.092 22.696 32.95 23.091 32.618 23.246 L22.785 27.894 C22.696 27.93 22.599 27.946 22.503 27.94 Z" fill="#000000" fill-opacity="1" stroke="none"/>
  <path d="M22.503 31.815 C22.406 31.814 22.309 31.792 22.221 31.749 L12.388 27.101 C12.068 26.943 11.932 26.558 12.084 26.234 12.236 25.911 12.619 25.769 12.945 25.915 L22.503 30.458 32.055 25.941 C32.267 25.836 32.52 25.854 32.716 25.989 32.911 26.123 33.019 26.352 32.997 26.588 32.976 26.824 32.828 27.031 32.612 27.127 L22.785 31.769 C22.696 31.804 22.599 31.82 22.503 31.815 Z" fill="#000000" fill-opacity="1" stroke="none"/>
</svg>
